<?xml version="1.0" encoding="UTF-8" standalone="no"?>
<svg
   width="24"
   height="24"
   viewBox="0 0 24 24"
   version="1.1"
   id="svg1"
   sodipodi:docname="both-dark.svg"
   xml:space="preserve"
   inkscape:version="1.3.2 (091e20e, 2023-11-25, custom)"
   xmlns:inkscape="http://www.inkscape.org/namespaces/inkscape"
   xmlns:sodipodi="http://sodipodi.sourceforge.net/DTD/sodipodi-0.dtd"
   xmlns="http://www.w3.org/2000/svg"
   xmlns:svg="http://www.w3.org/2000/svg"><defs
     id="defs1" /><sodipodi:namedview
     id="namedview1"
     pagecolor="#ffffff"
     bordercolor="#000000"
     borderopacity="0.25"
     inkscape:showpageshadow="2"
     inkscape:pageopacity="0.0"
     inkscape:pagecheckerboard="0"
     inkscape:deskcolor="#d1d1d1"
     inkscape:zoom="23.010433"
     inkscape:cx="0.19556346"
     inkscape:cy="7.8008093"
     inkscape:window-width="1920"
     inkscape:window-height="991"
     inkscape:window-x="-9"
     inkscape:window-y="-9"
     inkscape:window-maximized="1"
     inkscape:current-layer="svg1" /><path
     id="path1"
     style="display:inline;fill:#c5c5c5;fill-opacity:1"
     d="M 11.996094,0 C 8.4980972,0 5,2.3913793 5,6.734375 5,10.897371 8.75,13.714003 8.75,17 H 12 V 0 Z M 9.5,18 C 9.2240003,18 9,18.224 9,18.5 9,18.776 9.2240003,19 9.5,19 H 12 v -1 z m 0,2 C 9.2240003,20 9,20.224 9,20.5 9,20.776 9.2240003,21 9.5,21 H 12 v -1 z m -0.25,2 1.451172,1.658203 C 10.891172,23.874203 11.166125,24 11.453125,24 H 12 v -2 z"
     sodipodi:nodetypes="sscccssssccssssccsccsccc" /><path
     id="path1-3"
     style="display:inline;fill:#c5c5c5;fill-opacity:1"
     d="m 12,0 v 2 c 2.484727,0.0017 5,1.6280076 5,4.734375 0,1.6699983 -0.860438,3.1669547 -1.773438,4.751953 C 14.254563,13.173326 13.258812,14.921002 13.257812,17 H 15.25 C 15.25,13.714003 19,10.898371 19,6.734375 19,2.395993 15.500694,0.00177952 12,0 Z m 0,18 v 1 h 2.5 C 14.776,19 15,18.776 15,18.5 15,18.224 14.776,18 14.5,18 Z m 0,2 v 1 h 2.5 C 14.776,21 15,20.776 15,20.5 15,20.224 14.776,20 14.5,20 Z m 0,2 v 2 h 0.546875 c 0.287,0 0.561953,-0.125797 0.751953,-0.341797 L 14.75,22 Z"
     sodipodi:nodetypes="ccscccscccssscccssscccsccc" /></svg>
