<?xml version="1.0" encoding="UTF-8" standalone="no"?>
<svg
   width="24"
   height="24"
   viewBox="0 0 24 24"
   version="1.1"
   id="svg1"
   sodipodi:docname="light-dark.svg"
   inkscape:version="1.3.2 (091e20e, 2023-11-25, custom)"
   xmlns:inkscape="http://www.inkscape.org/namespaces/inkscape"
   xmlns:sodipodi="http://sodipodi.sourceforge.net/DTD/sodipodi-0.dtd"
   xmlns="http://www.w3.org/2000/svg"
   xmlns:svg="http://www.w3.org/2000/svg">
  <defs
     id="defs1" />
  <sodipodi:namedview
     id="namedview1"
     pagecolor="#ffffff"
     bordercolor="#000000"
     borderopacity="0.25"
     inkscape:showpageshadow="2"
     inkscape:pageopacity="0.0"
     inkscape:pagecheckerboard="0"
     inkscape:deskcolor="#d1d1d1"
     inkscape:zoom="32.541667"
     inkscape:cx="12.03073"
     inkscape:cy="12"
     inkscape:window-width="1920"
     inkscape:window-height="991"
     inkscape:window-x="-9"
     inkscape:window-y="-9"
     inkscape:window-maximized="1"
     inkscape:current-layer="svg1" />
  <path
     d="m 15,20.5 c 0,0.276 -0.224,0.5 -0.5,0.5 h -5 C 9.224,21 9,20.776 9,20.5 9,20.224 9.224,20 9.5,20 h 5 c 0.276,0 0.5,0.224 0.5,0.5 z M 14.5,18 h -5 C 9.224,18 9,18.224 9,18.5 9,18.776 9.224,19 9.5,19 h 5 C 14.776,19 15,18.776 15,18.5 15,18.224 14.776,18 14.5,18 Z m -3.799,5.659 C 10.891,23.875 11.166,24 11.453,24 h 1.094 c 0.287,0 0.562,-0.125 0.752,-0.341 L 14.75,22 H 9.25 Z M 19,6.734 C 19,10.898 15.25,13.714 15.25,17 H 8.75 C 8.75,13.714 5,10.897 5,6.734 5,2.391 8.498,0 11.996,0 15.498,0 19,2.394 19,6.734 Z"
     id="path1"
     style="fill:#c5c5c5;fill-opacity:1"
     sodipodi:nodetypes="sssssssssssssscssccccsccsss" />
</svg>
