<?xml version="1.0" encoding="UTF-8" standalone="no"?>
<svg
   width="24"
   height="24"
   viewBox="0 0 24 24"
   version="1.1"
   id="svg1"
   sodipodi:docname="light-light.svg"
   inkscape:version="1.3.2 (091e20e, 2023-11-25, custom)"
   xmlns:inkscape="http://www.inkscape.org/namespaces/inkscape"
   xmlns:sodipodi="http://sodipodi.sourceforge.net/DTD/sodipodi-0.dtd"
   xmlns="http://www.w3.org/2000/svg"
   xmlns:svg="http://www.w3.org/2000/svg">
  <defs
     id="defs1" />
  <sodipodi:namedview
     id="namedview1"
     pagecolor="#ffffff"
     bordercolor="#000000"
     borderopacity="0.25"
     inkscape:showpageshadow="2"
     inkscape:pageopacity="0.0"
     inkscape:pagecheckerboard="0"
     inkscape:deskcolor="#d1d1d1"
     inkscape:zoom="32.541667"
     inkscape:cx="12.03073"
     inkscape:cy="12"
     inkscape:window-width="1920"
     inkscape:window-height="991"
     inkscape:window-x="-9"
     inkscape:window-y="-9"
     inkscape:window-maximized="1"
     inkscape:current-layer="svg1" />
  <path
     d="m 19,6.734 c 0,4.164 -3.75,6.98 -3.75,10.266 h -1.992 c 0.001,-2.079 0.996,-3.826 1.968,-5.513 C 16.139,9.902 17,8.404 17,6.734 17,3.626 14.482,2 11.996,2 9.514,2 7,3.626 7,6.734 7,8.404 7.861,9.902 8.774,11.487 9.746,13.174 10.74,14.921 10.741,17 H 8.75 C 8.75,13.714 5,10.897 5,6.734 5,2.391 8.498,0 11.996,0 15.498,0 19,2.394 19,6.734 Z M 15,18.5 c 0,0.276 -0.224,0.5 -0.5,0.5 h -5 C 9.224,19 9,18.776 9,18.5 9,18.224 9.224,18 9.5,18 h 5 c 0.276,0 0.5,0.224 0.5,0.5 z m 0,2 c 0,0.276 -0.224,0.5 -0.5,0.5 h -5 C 9.224,21 9,20.776 9,20.5 9,20.224 9.224,20 9.5,20 h 5 c 0.276,0 0.5,0.224 0.5,0.5 z m -1.701,3.159 C 13.109,23.875 12.834,24 12.547,24 h -1.094 c -0.287,0 -0.562,-0.125 -0.752,-0.341 L 9.25,22 h 5.5 z"
     id="path1"
     style="fill:#424242;fill-opacity:1"
     sodipodi:nodetypes="scccssscccssssssssssssssssscsscccc" />
</svg>
